<svg width="14" height="10" viewBox="0 0 14 10" fill="none" xmlns="http://www.w3.org/2000/svg">
<path d="M13.9644 3.82513C13.8712 3.61723 13.6219 3.46786 13.3233 3.44768L9.28272 3.17923L7.68565 0.424047C7.56786 0.222202 7.2994 0.0910034 7.0008 0.0910034C6.70221 0.0910034 6.43375 0.222202 6.31596 0.424047L4.71889 3.17923L0.678275 3.4497C0.38242 3.46988 0.130396 3.61723 0.0372562 3.82715C-0.0558833 4.03505 0.029038 4.26515 0.253669 4.41048L3.3081 6.38452L2.40957 9.30521C2.34383 9.51917 2.45614 9.74322 2.69995 9.87038C2.8287 9.94102 2.98211 9.97534 3.13551 9.97534C3.26701 9.97534 3.3985 9.9491 3.51629 9.89662L7.0008 8.36058L10.4853 9.89662C10.7401 10.0097 11.0633 9.99956 11.3044 9.87038C11.5455 9.7412 11.6605 9.51917 11.5948 9.30521L10.6935 6.3825L13.7479 4.40846C13.9698 4.26313 14.0548 4.03505 13.9644 3.82513Z" fill="black"/>
</svg>